<svg id="Layer_1" data-name="Layer 1" xmlns="http://www.w3.org/2000/svg" viewBox="0 0 512 512"><title>capabilities</title><path d="M462.686,305.121c-.021-8.912-.088-23.628-.181-25.176A116.9,116.9,0,0,0,344.432,169.421q-1.518.017-3.024.071a105.835,105.835,0,0,0-88.025,53.025,108.1,108.1,0,0,0-6.972,95.213c1.571,3.89,3.069,7.809,4.4,11.787l10.725,32.063a128.2,128.2,0,0,1,5.677,31.92c1.784,36.694-.041,80.32-.854,96.5h97.347V455.087a5.66,5.66,0,0,1,.156-1.36,23.6,23.6,0,0,1,22.952-17.981h.1c22.375.094,34.516.166,36.086.215a21.08,21.08,0,0,0,15.292-5.853,21.99,21.99,0,0,0,6.638-15.99V374.3a6,6,0,0,1,6-6h35.46L463.08,307.247A6.006,6.006,0,0,1,462.686,305.121Z"/><path d="M201.237,307.692a109.82,109.82,0,1,1,104.535-143.5,117.8,117.8,0,0,1,28.682-6.268,136.462,136.462,0,0,0-16.8-35.758,6,6,0,0,1,.371-7.155L339.8,88.722,310.334,58.883,284.1,80.61a6,6,0,0,1-7.08.421,140.824,140.824,0,0,0-46.578-19.65,6,6,0,0,1-4.7-5.288L222.449,22H180.024l-3.286,34.093a6,6,0,0,1-4.705,5.288,136.727,136.727,0,0,0-46.5,19.6,6,6,0,0,1-7.155-.371L92.112,58.861,62.226,88.749l21.749,26.263a6,6,0,0,1,.421,7.08A140.8,140.8,0,0,0,64.745,168.67a6,6,0,0,1-5.288,4.7L25.364,176.66v42.425l34.093,3.287a6,6,0,0,1,5.288,4.7,136.684,136.684,0,0,0,19.6,46.5,6,6,0,0,1-.371,7.155L62.226,307l29.886,29.887,26.264-21.749a6,6,0,0,1,7.08-.421,140.807,140.807,0,0,0,46.577,19.65,6,6,0,0,1,4.705,5.288l3.286,34.093h42.425l3.286-34.093a6,6,0,0,1,4.7-5.288c3.11-.672,6.221-1.476,9.309-2.375a121.248,121.248,0,0,1-10.2-28A109.91,109.91,0,0,1,201.237,307.692Z"/><path d="M294.647,168.781a97.8,97.8,0,1,0-67.192,123.344,120.336,120.336,0,0,1,15.555-75.641A118.528,118.528,0,0,1,294.647,168.781ZM192.882,229.174a6,6,0,0,1-8.383,0l-30.71-29.982a6,6,0,0,1,8.383-8.586L188.69,216.5l51.136-49.925a6,6,0,1,1,8.383,8.586Z"/></svg>