<svg id="Capa_1" enable-background="new 0 0 512 512" height="512" viewBox="0 0 512 512" width="512" xmlns="http://www.w3.org/2000/svg"><g><g><path d="m512 292v-5c0-24.813-20.187-45-45-45h-220c-24.813 0-45 20.187-45 45v5z"/><path d="m202 322h310v50h-310z"/><path d="m202 402v5c0 24.813 20.187 45 45 45h113.787l55.607 55.606c2.87 2.87 6.706 4.394 10.61 4.394 1.932 0 3.881-.374 5.737-1.142 5.605-2.322 9.26-7.792 9.26-13.858v-45h25c24.813 0 45-20.187 45-45v-5z"/></g><g><path d="m0 50v-5c0-24.813 20.187-45 45-45h220c24.813 0 45 20.187 45 45v5z"/><path d="m0 80h310v50h-310z"/><path d="m310 160v5c0 24.813-20.187 45-45 45h-113.786l-55.607 55.606c-2.87 2.87-6.706 4.394-10.61 4.394-1.932 0-3.881-.374-5.737-1.142-5.605-2.321-9.26-7.791-9.26-13.858v-45h-25c-24.813 0-45-20.187-45-45v-5z"/></g></g></svg>